<svg width="24" height="24" viewBox="0 0 24 24" fill="none" xmlns="http://www.w3.org/2000/svg">
<circle cx="12" cy="12" r="10.5" stroke="#34373B"/>
<path d="M12.4698 10.887V19H10.8548V10.887H9.6198V9.5H10.8548V8.018C10.8548 7.19467 11.0765 6.58033 11.5198 6.175C11.9631 5.76967 12.5458 5.567 13.2678 5.567C13.6731 5.567 14.0215 5.59867 14.3128 5.662C14.6168 5.71267 14.8638 5.757 15.0538 5.795V7.144C14.8511 7.09333 14.6295 7.049 14.3888 7.011C14.1481 6.96033 13.8568 6.935 13.5148 6.935C13.1728 6.935 12.9131 7.02367 12.7358 7.201C12.5585 7.37833 12.4698 7.60633 12.4698 7.885V9.5H14.7688V10.887H12.4698Z" fill="#34373B"/>
</svg>
